<svg xmlns="http://www.w3.org/2000/svg" width="103.88" height="126.02" viewBox="0 0 103.88 126.02">
  <g id="Groupe_19" data-name="Groupe 19" transform="translate(-193.728 -2323.43)">
    <path id="Tracé_34" data-name="Tracé 34" d="M232.576,2409.776s9.767,4.78,26.184,0" fill="none" stroke="#d22" stroke-linecap="round" stroke-linejoin="round" stroke-width="4.75"/>
    <g id="Groupe_16" data-name="Groupe 16">
      <path id="Tracé_35" data-name="Tracé 35" d="M221.144,2402.5v26.682h-6.179v20.265" fill="none" stroke="#d22" stroke-miterlimit="10" stroke-width="4.75"/>
      <path id="Tracé_36" data-name="Tracé 36" d="M270.19,2402.5v26.682h6.179v20.265" fill="none" stroke="#d22" stroke-miterlimit="10" stroke-width="4.75"/>
    </g>
    <g id="Groupe_18" data-name="Groupe 18">
      <g id="Groupe_17" data-name="Groupe 17">
        <path id="Tracé_37" data-name="Tracé 37" d="M239.51,2329.242c-6.91,1.6-17.41,6.933-17.41,24.536,0,2.323-.494,4.947-3.407,6.365" fill="none" stroke="#d22" stroke-linecap="round" stroke-linejoin="round" stroke-width="4.75"/>
        <path id="Tracé_38" data-name="Tracé 38" d="M251.824,2329.242c6.91,1.6,17.41,6.933,17.41,24.536,0,2.323.494,4.947,3.407,6.365" fill="none" stroke="#d22" stroke-linecap="round" stroke-linejoin="round" stroke-width="4.75"/>
      </g>
      <path id="Tracé_39" data-name="Tracé 39" d="M238.526,2353.968l1.518-28.162h11.244l1.522,28.162" fill="none" stroke="#d22" stroke-linejoin="round" stroke-width="4.75"/>
      <path id="Tracé_40" data-name="Tracé 40" d="M267.626,2362.328a29.84,29.84,0,0,1,.161,3.1c0,14.562-10.35,28.893-22.121,28.893s-22.121-14.331-22.121-28.893a29.026,29.026,0,0,1,.147-2.939" fill="none" stroke="#d22" stroke-linecap="round" stroke-miterlimit="10" stroke-width="4.75"/>
      <path id="Tracé_41" data-name="Tracé 41" d="M275.391,2359.4c-7.988,3.422-18.251,5.385-29.721,5.385h-.006c-11.472,0-21.733-1.963-29.722-5.385" fill="none" stroke="#d22" stroke-linecap="round" stroke-linejoin="round" stroke-width="4.75"/>
    </g>
    <path id="Tracé_42" data-name="Tracé 42" d="M295.233,2449.45v-25.16c0-17.512-17.2-20.466-17.2-20.466s-5.836-1.191-7.645-1.566l-10.65-1.755v28.425H231.6V2400.5l-10.651,1.755c-1.81.375-7.644,1.566-7.644,1.566s-17.2,2.954-17.2,20.466v25.16" fill="none" stroke="#d22" stroke-linejoin="round" stroke-width="4.75"/>
  </g>
</svg>
