<svg xmlns="http://www.w3.org/2000/svg" width="143.105" height="88.251" viewBox="0 0 143.105 88.251">
  <g id="Groupe_22" data-name="Groupe 22" transform="translate(-590.048 -2343.133)">
    <line id="Ligne_5" data-name="Ligne 5" y1="0.013" x2="16.28" transform="translate(694.776 2408.297)" fill="none" stroke="#d22" stroke-linecap="round" stroke-linejoin="round" stroke-width="4.75"/>
    <path id="Tracé_43" data-name="Tracé 43" d="M645.031,2428.712a9.478,9.478,0,0,1-10.6-4.679l-13.608-23.346h-8.255" fill="none" stroke="#d22" stroke-linecap="round" stroke-linejoin="round" stroke-width="4.75"/>
    <line id="Ligne_6" data-name="Ligne 6" x2="8.147" y2="14.681" transform="translate(658.322 2404.53)" fill="none" stroke="#d22" stroke-linecap="round" stroke-linejoin="round" stroke-width="4.75"/>
    <line id="Ligne_7" data-name="Ligne 7" x2="5.288" y2="9.192" transform="translate(646.536 2414.123)" fill="none" stroke="#d22" stroke-linecap="round" stroke-linejoin="round" stroke-width="4.75"/>
    <path id="Tracé_44" data-name="Tracé 44" d="M676.986,2422.551c-2.373,1-6.911,2.879-10.57-3.394" fill="none" stroke="#d22" stroke-linecap="round" stroke-linejoin="round" stroke-width="4.75"/>
    <path id="Tracé_45" data-name="Tracé 45" d="M660.409,2426.482s-4.967,3.418-8.577-3.169" fill="none" stroke="#d22" stroke-linecap="round" stroke-linejoin="round" stroke-width="4.75"/>
    <line id="Ligne_8" data-name="Ligne 8" x2="26.858" transform="translate(612.529 2353.282)" fill="none" stroke="#d22" stroke-linecap="round" stroke-linejoin="round" stroke-width="4.75"/>
    <path id="Tracé_46" data-name="Tracé 46" d="M592.568,2345.508h19.417v63.743H592.423" fill="none" stroke="#d22" stroke-linecap="round" stroke-linejoin="round" stroke-width="4.75"/>
    <path id="Tracé_47" data-name="Tracé 47" d="M730.633,2351H711.214v63.743h19.564" fill="none" stroke="#d22" stroke-linecap="round" stroke-linejoin="round" stroke-width="4.75"/>
    <path id="Tracé_48" data-name="Tracé 48" d="M696.391,2410.876l-21.96-41.854c-1.863-.119-11.325-.97-11.325-.97l-12.968,13.17c-10.823,8.271-16.74-3.921-16.74-3.921l16.66-21.714c5.585-7.021,11.207-7.1,11.207-7.1l25.076.035,24.558,10.684" fill="none" stroke="#d22" stroke-linecap="round" stroke-linejoin="round" stroke-width="4.75"/>
    <path id="Tracé_49" data-name="Tracé 49" d="M697.832,2409.206c-1,2.817-7.382,19.286-15.63,4.863l-11.489-18.016" fill="none" stroke="#d22" stroke-linecap="round" stroke-linejoin="round" stroke-width="4.75"/>
    <g id="Groupe_20" data-name="Groupe 20">
      <circle id="Ellipse_1" data-name="Ellipse 1" cx="1.481" cy="1.481" r="1.481" transform="translate(725.037 2397.368)" fill="none" stroke="#d22" stroke-linecap="round" stroke-linejoin="round" stroke-width="4.75"/>
    </g>
    <g id="Groupe_21" data-name="Groupe 21">
      <path id="Tracé_50" data-name="Tracé 50" d="M598.119,2393.171a1.48,1.48,0,1,1-1.478-1.481A1.476,1.476,0,0,1,598.119,2393.171Z" fill="none" stroke="#d22" stroke-linecap="round" stroke-linejoin="round" stroke-width="4.75"/>
    </g>
  </g>
</svg>
