<svg xmlns="http://www.w3.org/2000/svg" width="106.727" height="128.483" viewBox="0 0 106.727 128.483">
  <g id="Groupe_24" data-name="Groupe 24" transform="translate(-1035.523 -2322.267)">
    <path id="Tracé_51" data-name="Tracé 51" d="M1116.477,2367.755a27.592,27.592,0,1,1-27.59-27.595A27.592,27.592,0,0,1,1116.477,2367.755Z" fill="none" stroke="#d22" stroke-linecap="round" stroke-linejoin="round" stroke-width="4.75"/>
    <path id="Tracé_52" data-name="Tracé 52" d="M1090,2378.5v-19.966l-6.845,5.46" fill="none" stroke="#d22" stroke-linecap="round" stroke-linejoin="round" stroke-width="4.75"/>
    <path id="Tracé_53" data-name="Tracé 53" d="M1089.774,2324.642l12.534,8.9,15.239,1.991,3.878,14.873,10.4,11.325-6.591,13.885.685,15.358-13.974,6.4-9.344,12.206-14.825-4.077-15,3.344-8.736-12.652-13.64-7.084,1.438-15.3-5.9-14.2,10.945-10.8,4.6-14.661,15.322-1.24Z" fill="none" stroke="#d22" stroke-linecap="round" stroke-linejoin="round" stroke-width="4.75"/>
    <g id="Groupe_23" data-name="Groupe 23">
      <path id="Tracé_54" data-name="Tracé 54" d="M1078.5,2417.576l-15.332,30.8-5.242-21.4L1037.9,2435.9l16.458-33.78" fill="none" stroke="#d22" stroke-linecap="round" stroke-linejoin="round" stroke-width="4.75"/>
      <path id="Tracé_55" data-name="Tracé 55" d="M1099.277,2417.576l15.332,30.8,5.242-21.4,20.024,8.917-16.458-33.78" fill="none" stroke="#d22" stroke-linecap="round" stroke-linejoin="round" stroke-width="4.75"/>
    </g>
  </g>
</svg>
