<svg xmlns="http://www.w3.org/2000/svg" width="370.202" height="121.086" viewBox="0 0 370.202 121.086">
  <g id="Groupe_12" data-name="Groupe 12" transform="translate(-503.298 -2953.384)">
    <g id="Groupe_8" data-name="Groupe 8">
      <path id="Tracé_15" data-name="Tracé 15" d="M591.319,3074.47H549.256l-33.291-57.658,12.076-28.174,7.775-10.307Z" fill="#039"/>
      <path id="Tracé_16" data-name="Tracé 16" d="M638.59,2998.02l-31.128,53.914H565.39l55.279-95.735Z" fill="#d22"/>
      <path id="Tracé_17" data-name="Tracé 17" d="M614.514,2989.816H503.3l15.431-36.433h80.353Z" fill="#039"/>
    </g>
    <g id="Groupe_11" data-name="Groupe 11">
      <g id="Groupe_9" data-name="Groupe 9">
        <path id="Tracé_18" data-name="Tracé 18" d="M675.733,3011.982v-40.077H661.01v-13.046h44.785v13.046H691.113v40.077Z" fill="#1d1d1b"/>
        <path id="Tracé_19" data-name="Tracé 19" d="M704.594,2985.342c0-15.468,13.658-27.851,30.555-27.851,16.815,0,30.554,12.383,30.554,27.851,0,15.429-13.739,27.929-30.554,27.929C718.252,3013.271,704.594,3000.771,704.594,2985.342Zm45.688.039c0-8.554-6.685-14.453-15.133-14.453s-15.134,5.938-15.134,14.453,6.767,14.453,15.134,14.453C743.6,2999.834,750.282,2993.9,750.282,2985.381Z" fill="#1d1d1b"/>
        <path id="Tracé_20" data-name="Tracé 20" d="M769.341,2991.514v-32.655h15.421v31.561c0,5.547,3.363,9.531,9.719,9.531,6.234,0,9.638-3.984,9.638-9.57v-31.522h15.462v32.655c0,12.538-9.679,21.757-25.1,21.757C780.291,3013.271,769.341,3004.99,769.341,2991.514Z" fill="#1d1d1b"/>
        <path id="Tracé_21" data-name="Tracé 21" d="M826.5,3011.982v-53.123h24.812c12.14,0,20.794,7.5,20.794,18.4a16.99,16.99,0,0,1-9.843,15.586l11.237,19.14H855.824l-8.695-16.836h-5.167v16.836Zm15.462-29.1h8.653a5.756,5.756,0,0,0,6.029-5.625c0-2.7-2.707-5.351-5.988-5.351h-8.694Z" fill="#1d1d1b"/>
      </g>
      <path id="Tracé_22" data-name="Tracé 22" d="M713.734,3070.362v-49.369h35.648v12.125H727.42v8.748h18.731v11.4H727.42v17.1Z" fill="#1d1d1b"/>
      <path id="Tracé_23" data-name="Tracé 23" d="M752.905,3070.362v-49.369h35.648v12.088H766.591v6.571h18.731v11.362H766.591v7.224h22.288v12.124Z" fill="#1d1d1b"/>
      <path id="Tracé_24" data-name="Tracé 24" d="M792.4,3070.362v-49.369h21.962c10.745,0,18.4,6.97,18.4,17.1a15.863,15.863,0,0,1-8.712,14.484L834,3070.362H818.357l-7.7-15.646h-4.574v15.646Zm13.686-27.044h7.659a5.208,5.208,0,0,0,5.336-5.228,5.324,5.324,0,0,0-5.3-4.972h-7.7Z" fill="#1d1d1b"/>
      <path id="Tracé_25" data-name="Tracé 25" d="M837.526,3070.362v-49.369h35.647v12.088H851.211v6.571h18.732v11.362H851.211v7.224H873.5v12.124Z" fill="#1d1d1b"/>
      <g id="Groupe_10" data-name="Groupe 10">
        <path id="Tracé_26" data-name="Tracé 26" d="M661.01,3070.215v-26.95h19.459v6.6H668.48v3.586h10.225v6.2H668.48v3.943h12.167v6.619Z" fill="#1d1d1b"/>
        <path id="Tracé_27" data-name="Tracé 27" d="M688.432,3070.215v-20.332h-7.114v-6.618h21.639v6.618h-7.094v20.332Z" fill="#1d1d1b"/>
      </g>
    </g>
  </g>
</svg>
