<svg xmlns="http://www.w3.org/2000/svg" width="207.45" height="67.853" viewBox="0 0 207.45 67.853">
  <g id="Groupe_7" data-name="Groupe 7" transform="translate(-89.674 -31)">
    <g id="Groupe_3" data-name="Groupe 3">
      <path id="Tracé_2" data-name="Tracé 2" d="M139,98.853H115.428L96.772,66.543l6.767-15.788L107.9,44.98Z" fill="#039"/>
      <path id="Tracé_3" data-name="Tracé 3" d="M165.487,56.013,148.044,86.225H124.469l30.977-53.647Z" fill="#d22"/>
      <path id="Tracé_4" data-name="Tracé 4" d="M152,51.416H89.674L98.321,31h45.028Z" fill="#039"/>
    </g>
    <g id="Groupe_6" data-name="Groupe 6">
      <g id="Groupe_4" data-name="Groupe 4">
        <path id="Tracé_5" data-name="Tracé 5" d="M186.3,63.837V41.379h-8.25V34.068h25.1v7.311H194.92V63.837Z" fill="#1d1d1b"/>
        <path id="Tracé_6" data-name="Tracé 6" d="M202.474,48.909c0-8.668,7.654-15.607,17.122-15.607,9.423,0,17.122,6.939,17.122,15.607,0,8.646-7.7,15.65-17.122,15.65C210.128,64.559,202.474,57.555,202.474,48.909Zm25.6.021c0-4.793-3.746-8.1-8.481-8.1s-8.48,3.327-8.48,8.1,3.792,8.1,8.48,8.1C224.331,57.029,228.077,53.7,228.077,48.93Z" fill="#1d1d1b"/>
        <path id="Tracé_7" data-name="Tracé 7" d="M238.756,52.367v-18.3H247.4V51.754c0,3.108,1.884,5.341,5.446,5.341a5,5,0,0,0,5.4-5.363V34.068h8.664v18.3c0,7.026-5.423,12.192-14.065,12.192C244.893,64.559,238.756,59.919,238.756,52.367Z" fill="#1d1d1b"/>
        <path id="Tracé_8" data-name="Tracé 8" d="M270.787,63.837V34.068h13.9c6.8,0,11.652,4.2,11.652,10.31a9.518,9.518,0,0,1-5.516,8.733l6.3,10.726h-9.9L282.347,54.4h-2.9v9.434Zm8.664-16.307H284.3a3.226,3.226,0,0,0,3.379-3.152,3.3,3.3,0,0,0-3.356-3h-4.872Z" fill="#1d1d1b"/>
      </g>
      <path id="Tracé_9" data-name="Tracé 9" d="M207.6,96.551V68.887h19.976v6.794H215.265v4.9h10.5V86.97h-10.5v9.581Z" fill="#1d1d1b"/>
      <path id="Tracé_10" data-name="Tracé 10" d="M229.546,96.551V68.887h19.976V75.66H237.215v3.682h10.5v6.367h-10.5v4.048h12.49v6.794Z" fill="#1d1d1b"/>
      <path id="Tracé_11" data-name="Tracé 11" d="M251.679,96.551V68.887h12.307c6.022,0,10.314,3.9,10.314,9.58a8.89,8.89,0,0,1-4.882,8.117l5.573,9.967h-8.767l-4.313-8.767h-2.563v8.767ZM259.348,81.4h4.293a2.919,2.919,0,0,0,2.99-2.93,2.985,2.985,0,0,0-2.97-2.786h-4.313Z" fill="#1d1d1b"/>
      <path id="Tracé_12" data-name="Tracé 12" d="M276.965,96.551V68.887h19.976V75.66H284.634v3.682h10.5v6.367h-10.5v4.048h12.49v6.794Z" fill="#1d1d1b"/>
      <g id="Groupe_5" data-name="Groupe 5">
        <path id="Tracé_13" data-name="Tracé 13" d="M178.051,96.469v-15.1h10.9v3.7h-6.718v2.009h5.73V90.55h-5.73v2.21h6.818v3.709Z" fill="#1d1d1b"/>
        <path id="Tracé_14" data-name="Tracé 14" d="M193.418,96.469V85.076h-3.987V81.367h12.126v3.709h-3.975V96.469Z" fill="#1d1d1b"/>
      </g>
    </g>
  </g>
</svg>
